<svg width="16" height="17" viewBox="0 0 16 17" fill="none" xmlns="http://www.w3.org/2000/svg">
<g clip-path="url(#clip0_19_42)">
<path fill-rule="evenodd" clip-rule="evenodd" d="M9.40078 8.03065L15.6998 1.6972C15.8873 1.50774 15.9925 1.25193 15.9925 0.985342C15.9925 0.718756 15.8873 0.462948 15.6998 0.273487C15.607 0.17999 15.4967 0.105743 15.3751 0.0551005C15.2535 0.00445827 15.1231 -0.0216064 14.9914 -0.0216064C14.8597 -0.0216064 14.7293 0.00445827 14.6078 0.0551005C14.4862 0.105743 14.3759 0.17999 14.2831 0.273487L7.98411 6.60688L1.68512 0.273487C1.59238 0.17999 1.48202 0.105743 1.36045 0.0551005C1.23888 0.00445827 1.10849 -0.0216064 0.97679 -0.0216064C0.845093 -0.0216064 0.714702 0.00445827 0.593131 0.0551005C0.471561 0.105743 0.361204 0.17999 0.268454 0.273487C0.080911 0.462948 -0.024292 0.718756 -0.024292 0.985342C-0.024292 1.25193 0.080911 1.50774 0.268454 1.6972L6.56744 8.03065L0.268454 14.364C0.0812175 14.5535 -0.0237979 14.8091 -0.0237979 15.0754C-0.0237979 15.3417 0.0812175 15.5973 0.268454 15.7868C0.361204 15.8803 0.471561 15.9544 0.593131 16.0051C0.714702 16.0557 0.845093 16.0818 0.97679 16.0818C1.10849 16.0818 1.23888 16.0557 1.36045 16.0051C1.48202 15.9544 1.59238 15.8803 1.68512 15.7868L7.98411 9.45331L14.2831 15.7868C14.3765 15.8798 14.4874 15.9535 14.6093 16.0037C14.7312 16.0539 14.8618 16.0795 14.9936 16.0793C15.1254 16.079 15.2559 16.0527 15.3776 16.002C15.4993 15.9513 15.6098 15.8772 15.7028 15.7837C15.7958 15.6903 15.8695 15.5795 15.9197 15.4576C15.9699 15.3357 15.9956 15.2051 15.9953 15.0732C15.995 14.9414 15.9688 14.811 15.9181 14.6893C15.8674 14.5676 15.7932 14.4571 15.6998 14.364L9.40078 8.03065Z" fill="#F2F2F2"/>
</g>
<defs>
<clipPath id="clip0_19_42">
<rect width="16" height="16.0951" fill="white"/>
</clipPath>
</defs>
</svg>
