<svg width="24" height="24" viewBox="0 0 24 24" fill="none" xmlns="http://www.w3.org/2000/svg">
<path d="M11.761 20.854C9.59097 19.518 7.57097 17.946 5.73897 16.165C4.45097 14.883 3.47097 13.32 2.87297 11.595C1.79697 8.25 3.05298 4.421 6.57098 3.288C8.41998 2.692 10.438 3.033 11.996 4.201C13.554 3.034 15.572 2.694 17.421 3.288C20.938 4.421 22.204 8.25 21.128 11.595C20.53 13.32 19.55 14.883 18.262 16.165C16.43 17.945 14.411 19.518 12.24 20.854L12.005 21L11.761 20.854V20.854Z" stroke="white" stroke-width="1.5" stroke-linecap="round" stroke-linejoin="round"/>
<path d="M15.74 7.053C16.805 7.393 17.561 8.35 17.656 9.475" stroke="white" stroke-width="1.5" stroke-linecap="round" stroke-linejoin="round"/>
</svg>
