<svg width="24" height="24" viewBox="0 0 24 24" fill="none" xmlns="http://www.w3.org/2000/svg">
<path d="M16.303 2.75H7.654C4.64 2.75 2.75 4.884 2.75 7.904V16.054C2.75 19.074 4.631 21.207 7.654 21.207H16.302C19.326 21.207 21.207 19.073 21.207 16.053V7.904C21.207 4.884 19.327 2.75 16.303 2.75Z" stroke="white" stroke-width="1.5" stroke-linecap="round" stroke-linejoin="round"/>
<path d="M10.703 8.786C10.703 9.805 9.87602 10.632 8.85702 10.632C7.83902 10.632 7.01202 9.805 7.01202 8.786C7.01202 7.766 7.83902 6.94 8.85702 6.94C9.87702 6.94 10.703 7.767 10.703 8.786Z" stroke="white" stroke-width="1.5" stroke-linecap="round" stroke-linejoin="round"/>
<path d="M21.207 14.95C20.213 14.086 19.347 13.045 18.207 12.358C17.066 11.67 15.839 12.094 15.047 13.119C14.282 14.111 13.804 15.444 12.649 16.069C11.226 16.839 10.389 15.597 9.203 15.099C7.878 14.543 6.872 15.541 6.098 16.5C5.323 17.46 4.538 18.41 3.75 19.36" stroke="white" stroke-width="1.5" stroke-linecap="round" stroke-linejoin="round"/>
</svg>
