<svg width="24" height="24" viewBox="0 0 24 24" fill="none" xmlns="http://www.w3.org/2000/svg">
<path d="M20.0617 22.5466C19.7203 22.4122 19.4088 22.2117 19.1452 21.9565C18.8926 21.7161 18.6916 21.4268 18.5545 21.1062C18.4188 20.7503 18.3509 20.3722 18.3542 19.9914C18.3508 19.6325 18.4189 19.2765 18.5545 18.9441C18.689 18.6021 18.8897 18.2899 19.1452 18.0257C19.4079 17.7704 19.7197 17.571 20.0617 17.4396C20.4184 17.3051 20.7972 17.2386 21.1784 17.2433C21.5425 17.2332 21.9048 17.2974 22.2433 17.432C22.5817 17.5666 22.8892 17.7689 23.1469 18.0263C23.414 18.2796 23.6272 18.5844 23.7735 18.9222C23.9199 19.26 23.9965 19.6239 23.9986 19.9921C24.0111 20.3623 23.9411 20.7306 23.7938 21.0705C23.6465 21.4104 23.4255 21.7132 23.1469 21.9572C22.6258 22.4616 21.929 22.7436 21.2038 22.7435H21.1537C20.7809 22.7433 20.4111 22.6766 20.0617 22.5466ZM9.37769 22.4799L4.7853 15.7381H4.65647V22.4799H0V1.20001H4.65647V14.1662H4.72322L9.18278 8.46907H14.8185L9.3917 14.817L15.0855 22.4785L9.37769 22.4799Z" fill="white"/>
</svg>
