<svg width="16" height="16" viewBox="0 0 16 16" fill="none" xmlns="http://www.w3.org/2000/svg">
<path fill-rule="evenodd" clip-rule="evenodd" d="M6.39404 1.66663C4.49604 1.66663 2.97137 3.19063 2.97137 5.08929C2.97137 6.98796 4.49537 8.51263 6.39404 8.51263C8.29337 8.51263 9.81737 6.98796 9.81737 5.08929C9.81737 3.19063 8.29337 1.66663 6.39404 1.66663ZM6.39404 2.66663C7.74071 2.66663 8.81737 3.74329 8.81737 5.08929C8.81737 6.43596 7.74071 7.51263 6.39404 7.51263C5.04737 7.51263 3.97137 6.43596 3.97137 5.08929C3.97137 3.74263 5.04804 2.66663 6.39404 2.66663ZM13.378 5.07729C13.378 3.58796 12.17 2.37929 10.68 2.37929C10.404 2.37929 10.18 2.60329 10.18 2.87929C10.18 3.15596 10.404 3.37929 10.68 3.37929C11.618 3.37929 12.378 4.13996 12.378 5.07729C12.378 6.01529 11.618 6.77529 10.68 6.77529C10.404 6.77529 10.18 6.99929 10.18 7.27529C10.18 7.55196 10.404 7.77529 10.68 7.77529C12.17 7.77529 13.378 6.56796 13.378 5.07729ZM12.866 9.32929C12.4967 9.24729 12.112 9.19196 11.7247 9.16529C11.4494 9.14663 11.2114 9.35463 11.192 9.62996C11.1734 9.90596 11.3814 10.1446 11.6567 10.1633C11.994 10.186 12.3294 10.2346 12.6607 10.308C13.1787 10.4106 13.5214 10.582 13.614 10.7766C13.684 10.9233 13.684 11.0966 13.614 11.2433C13.522 11.4373 13.1807 11.6086 12.668 11.714C12.3974 11.7693 12.2234 12.034 12.2794 12.304C12.3347 12.5746 12.5994 12.7493 12.8694 12.6933C13.666 12.5293 14.2494 12.2373 14.5174 11.6733C14.716 11.2533 14.716 10.7666 14.5174 10.3466C14.2474 9.78063 13.6587 9.48663 12.866 9.32929ZM1.33337 12.012C1.33337 10.2626 3.17204 9.63729 6.39404 9.63729L6.60737 9.63863C9.70404 9.66529 11.4554 10.2906 11.4554 11.9986C11.4554 13.6706 9.77671 14.316 6.81537 14.37L6.39404 14.3733C3.16471 14.3733 1.33404 13.76 1.33404 12.012H1.33337ZM10.4554 11.9986C10.4554 11.1006 9.07537 10.6373 6.39404 10.6373C3.71604 10.6373 2.33404 11.1073 2.33404 12.012C2.33404 12.9113 3.71271 13.3733 6.39404 13.3733C9.07271 13.3733 10.4554 12.9033 10.4554 11.9986Z" fill="#BDBDBD"/>
</svg>
